<svg width="22" height="22" viewBox="0 0 22 22" fill="none" xmlns="http://www.w3.org/2000/svg">
<path d="M10.4622 0.0127228C4.60469 0.28937 -0.0177184 5.12812 5.10601e-05 10.9449C0.00546148 12.7165 0.43665 14.3887 1.19729 15.8662L0.029437 21.4893C-0.0337375 21.7935 0.24283 22.0598 0.547458 21.9883L6.10231 20.6828C7.52944 21.388 9.13241 21.7953 10.8289 21.8209C16.8158 21.9116 21.8079 17.1963 21.9945 11.2599C22.1945 4.89657 16.8999 -0.291389 10.4622 0.0127228ZM17.0903 16.9522C15.4636 18.5659 13.3006 19.4545 11 19.4545C9.65292 19.4545 8.36323 19.1547 7.16663 18.5635L6.39304 18.1813L2.98734 18.9816L3.70422 15.5298L3.32311 14.7895C2.70192 13.5828 2.38695 12.2779 2.38695 10.9111C2.38695 8.62904 3.28285 6.48363 4.90963 4.86994C6.52188 3.27072 8.72011 2.36759 11.0002 2.36759C13.3008 2.36765 15.4636 3.25631 17.0904 4.86989C18.7172 6.48353 19.6131 8.62894 19.6131 10.9109C19.6131 13.1726 18.7026 15.3531 17.0903 16.9522Z" fill="#F19CBB"/>
<path d="M16.3385 13.2772L14.2078 12.6704C13.9277 12.5906 13.626 12.6694 13.4219 12.8757L12.9009 13.4023C12.6812 13.6243 12.3478 13.6957 12.057 13.579C11.0491 13.1744 8.92883 11.3045 8.38736 10.3691C8.23115 10.0993 8.25698 9.76201 8.44879 9.51583L8.90369 8.93207C9.08191 8.70335 9.11952 8.39619 9.00166 8.1318L8.10523 6.12072C7.89051 5.63903 7.26995 5.49881 6.86454 5.83891C6.26987 6.3378 5.56429 7.09593 5.47852 7.93581C5.32729 9.4166 5.96753 11.2833 8.38858 13.5246C11.1856 16.1141 13.4254 16.4562 14.8837 16.1057C15.7108 15.907 16.3719 15.1103 16.7891 14.458C17.0735 14.0133 16.8489 13.4226 16.3385 13.2772Z" fill="#F19CBB"/>
</svg>
